<?xml version="1.0" encoding="utf-8"?>
<!-- Generator: Adobe Illustrator 15.0.0, SVG Export Plug-In . SVG Version: 6.00 Build 0) -->
<!DOCTYPE svg PUBLIC "-//W3C//DTD SVG 1.1//EN" "http://www.w3.org/Graphics/SVG/1.1/DTD/svg11.dtd">
<svg version="1.1" id="Layer_1" xmlns="http://www.w3.org/2000/svg" xmlns:xlink="http://www.w3.org/1999/xlink" x="0px" y="0px"
	 width="372px" height="154.595px" viewBox="0 0 372 154.595" enable-background="new 0 0 372 154.595" xml:space="preserve">
<g fill="#000000">
	<path fill-rule="evenodd" clip-rule="evenodd" d="M30.849,95.423c0.062-1.877,0.345-7.205,0.345-7.205
		c0.647-5.547-0.017-9.958,0.463-14.9l0.183-2.787c1.254-5.994,1.097-13.584,1.255-21.404c0.053-0.483,0.12-0.72,0.12-0.72
		s0.183-0.761,0.098-1.415c-0.043-0.335-0.044-0.793-0.038-0.922c0.05-1.132,0.796-2.482,0.824-3.722
		c0.104-4.452-0.707-9.026,0.707-13.103c0.088-2.196,0.514-6.113,1.631-8.967c0.232-0.598,1.23-1.397,1.502-1.987
		c1.039-2.244,2.946-2.839,4.966-4.211c2.569-0.699,3.792-0.135,5.44-1.16c12.148,1.203,15.613,13.844,20.137,21.569
		c0.624,4.622,2.14,6.683,3.413,11.085c1.591,4.819,1.974,9.987,2.594,15.027c0.266,3.326,0.205,5.883,0.118,9.165
		c-0.009,0.365,0.015,0.805,0.011,0.874c-0.123,2.853-0.427,7.417-1.176,10.272c-0.18,0.672-0.872,1.158-1.071,1.761
		c-0.86,2.608-0.892,5.207-1.866,7.665c-0.249,0.624-0.601,1.087-0.85,1.752c-0.155,0.417-0.308,1.102-0.417,1.535
		c-0.327,1.29-1.882,2.637-2.574,3.525c-0.843,1.084-2.077,2.885-3.002,4.185l0,0c-0.14,0.294-1.496,2.42-1.496,2.42
		c-5.379,8.506-14.712,13.608-22.439,20.363l-1.079,0.889c-1.643,1.09-2.414,2.38-2.568,3.962c0.954,0.859,1.6,2.041,3.085,2.358
		c-1.242,2.437-4.237,0.303-5.033-1.026c0.354-0.664-0.227-2.59-0.049-3.709c0.065-0.297,0.546-0.187,0.872-0.229
		c2.387-4.137,6.97-6.136,10.579-9.084c1.503-2.025,4.523-4.124,7.128-5.765c1.716-1.424,3.387-3.202,3.387-3.202
		c0.428-0.368,0.898-0.731,1.356-1.224c1.178-1.504,1.591-2.267,2.251-3.398c-0.002,0,1.371-1.643,1.942-2.44
		c0.995-1.375,1.882-1.59,3.144-4.178c0.891-1.515,2.344-3.733,2.423-4.198c0,0,0.499-0.777,0,0c0.558-0.51,1.342-2.903,1.793-4.047
		c1.848-7.524,5.059-17.406,3.355-26.341c0,0,0.067-0.454,0.002-1.202c-0.216-2.707-0.325-5.66-0.545-8.504
		c-0.133-0.473-0.259-0.415-0.45-1.086c-0.25-1.095-0.818-2.011-1.131-3.039c-1.187-3.919-1.407-9.613-3.867-12.393
		c-1.134-3.36-2.15-7.219-4.057-9.987c-0.26-0.377-0.818-0.521-1.103-0.858c-2.383-2.851-2.484-5.278-4.895-7.36
		c-0.796-0.686-1.993-1.326-2.865-2.146c-0.783-0.737-2.555,0.184-3.288-1.052c-2.721,0.688-6.461,0.109-8.261,2.51
		c-1.178-0.507-1.497,1.505-2.596,1.777c-0.569,3.383-2.284,6.176-2.717,9.421c-0.74,5.555-0.318,10.778-0.657,16.813l0.021,0.209
		l-0.018,0.227c-0.138,1.894-0.386,3.854-0.36,5.897c0.028,2.262-1.048,5.026-0.783,6.994c0.547,4.083-0.812,12.013-0.875,17.035
		c-0.095,7.678-0.783,14.654-1.463,22.06l-0.198,1.532c-0.202,1.622-0.005,3.08,0.064,5.017c0.02,0.598,0.231,1.482,0.472,2.831
		c0.149,0.831,0.049,1.537,0.025,1.965c-0.02,0.323,0.044,0.819,0.015,1.308c-0.098,1.74,0.275,8.352,0.325,8.29
		c-0.373,0.448-1.483,0.263-1.958,0.462c-1.36-1.757-0.223-6.665-0.109-8.509C31.374,108.732,30.078,100.216,30.849,95.423"/>
	<path fill-rule="evenodd" clip-rule="evenodd" d="M300.21,30.438c-0.002-0.219-0.005-0.438-0.008-0.654
		c2.026-1.045,4.547-1.604,5.85-3.352c0.271-2.16,0.504-4.88-0.946-5.661c2.524-2.728,3.275,4.281,2.262,6.301
		C305.981,29.848,302.369,30.549,300.21,30.438z"/>
	<path fill-rule="evenodd" clip-rule="evenodd" d="M278.87,34.419c0.18,0.113,0.362,0.226,0.662,0.21
		c-0.05,0.239-0.432,0.154-0.432,0.443C278.842,35.041,278.913,34.675,278.87,34.419z"/>
	<path fill-rule="evenodd" clip-rule="evenodd" d="M277.149,36.189c0.004-0.212,0.264-0.172,0.433-0.224
		C277.58,36.177,277.318,36.137,277.149,36.189z"/>
	<path fill-rule="evenodd" clip-rule="evenodd" d="M188.67,63.508c0.86,0.149,1.665,0.357,2.41,0.623
		c-0.021,1.126,1.033,1.575,0.469,2.614c-1.408,0.274-2.21,0.118-3.278-0.397c0.062-0.726,0.015-1.34-0.453-1.521
		C187.813,64.111,188.889,64.438,188.67,63.508z"/>
	<path fill-rule="evenodd" clip-rule="evenodd" d="M275.397,69.821c0.005-0.214,0.264-0.173,0.434-0.224
		C275.828,69.81,275.57,69.767,275.397,69.821z"/>
	<path fill-rule="evenodd" clip-rule="evenodd" d="M100.079,81.883c-0.18,0.255-0.281,0.587-0.204,1.092
		c-1.057-0.126-1.541,0.309-2.184,0.03c-5.242,1.724-11.263,4.171-13.635,8.901c-1.992,3.978-4.353,9.9-3.319,13.576
		c-0.67,1.564,0.516,4.271,1.167,5.878c5.489,6.168,15.063-0.641,19.15-4.394c0.964-2.264,2.732-4.068,3.627-6.376
		c0.234-0.602-0.002-1.363,0.194-1.964c0.837-2.582,2.471-5.886,1.415-8.749c0.785-2.365-1.503-6.065-2.721-8.041
		c-0.833-0.252-1.129-1.054-1.765-1.505c-0.799-0.183-1.158,0.398-1.526,0.02c-0.396-0.806-0.673-0.582-0.675-1.521
		c4.759-1.512,5.706,3.042,8.362,5.351c-0.029,2.128,0.968,3.645,0.948,5.879c-0.039,4.585-1.567,8.439-2.469,11.816
		c-1.593,1.365-1.611,3.261-2.557,4.835c-2.206,3.68-7.472,5.627-10.804,8.432c-4,1.274-7.824,0.741-10.925-0.952
		c-3.577-1.939-3.221-7.492-4.063-10.64c0.819-4.597,3.07-9.852,5.49-14.476c3.21-3.051,6.905-6.771,12.35-6.924
		C96.922,81.057,98.772,81.31,100.079,81.883z"/>
	<path fill-rule="evenodd" clip-rule="evenodd" d="M140.315,19.604C139.908,18.912,141.283,20.727,140.315,19.604
		L140.315,19.604z"/>
	<path fill-rule="evenodd" clip-rule="evenodd" d="M136.558,15.94c5.649,0.434,7.684,7.302,7.136,11.914
		c-0.97,0.788-1.412,0.098-2.403-0.188c1.214-0.106-0.116-3.302-0.283-5.016c-0.192-1.994-1.749-4.021-3.554-4.756
		c-0.776,0.45-2.216,0.533-2.829,0.695c-0.452,0.488-0.631,1.25-1.508,1.325c-0.438,2.816-3.427,3.622-3.84,7.032
		c-1.579,1.231-1.687,7.118-2.076,8.541c-0.764,2.821,6.898-0.461,8.54,2.074c0.115,0.684-0.663,0.5-0.419,1.313
		c-2.069-0.734-6.074-0.365-8.518-0.546c-0.668,0.355-0.229,1.786-1.065,1.979c0.08,4.717-0.009,9.29-0.254,14.404
		c-0.071,1.536-0.232,3.121-0.379,4.587c-0.46,4.675-0.68,8.802-0.918,13.327c-0.207,3.879-0.71,7.84-0.292,11.352
		c-0.61,1.566-0.897,2.834-0.162,4.368c-0.982,7.742-0.001,13.753-1.5,19.225c0.162,0.2,0.401,0.323,0.659,0.428
		c-1.284,1.938-2.381,4.943-1.87,7.227c-2.137,2.712-1.742,9.018-7.116,6.856c-0.604-0.585,0.56-0.551,0.42-1.314
		c3.165,0.21,2.841-2.978,4.089-4.636c0.076-0.371-0.175-0.41-0.445-0.43c1.182-2.272,1.779-4.466,1.869-7.446
		c1.844-3.518,0.731-8.728,1.801-12.899c0.075-0.374-0.175-0.411-0.441-0.429c0.862-3.736,0.583-9.43,0.263-13.537
		c-0.044-0.587,1.177-2.484,0.391-3.496c1.524-6.555,0.6-13.328,1.055-20.092c0.263-3.93,1.16-7.997,0.511-11.14
		c-0.486-2.375,1.384-4.859,0.779-7.43c0.218-0.147,0.218-0.504,0.648-0.446c-1.386-1.673-3.548-0.053-6.551-0.35
		c0.017-0.859,0.73-1.492-0.239-1.744c2.082,0.471,4.638-0.689,6.759-0.306c2.015-3.37,0.419-8.733,3.556-12.049
		c0.371-2.334,3.032-4.202,4.064-6.598c1.686-0.085,1.966-1.534,4.131-1.144C136.562,16.378,136.56,16.16,136.558,15.94z
		 M140.315,19.604C141.283,20.727,139.908,18.912,140.315,19.604L140.315,19.604z"/>
	<path fill-rule="evenodd" clip-rule="evenodd" d="M284.989,34.78c-1.667,1.891-4.696,0.297-6.973,0.744
		c0.098,2.481-1.119,4.074-0.36,6.113c-0.643,7.724-1.86,14.699-0.604,20.96c-1.357,2.955,0.399,7.641-0.285,12.007
		c-0.375,2.398-1.323,4.457-0.572,6.337c-0.219,0-0.438,0.005-0.656,0.009c0.604,3.391-1.199,6.49-0.318,9.169
		c-1.9,1.965,0.117,4.21-1.236,5.91c0.483,0.674,0.159,0.917,0.023,1.745c-0.34,2.105,1.547,3.915,0.079,6.11
		c0.575,2.891,0.484,7.054,2.087,9.576c1.074,1.691,6.52,3.188,7.639,0.122c1.005,0.596,0.882-0.748,1.734-0.895
		c0.649-3.511,2.971-8.131,2.462-12.255c0.371-0.142,0.352-0.662,0.643-0.881c1.25,1.277,0.335,6.118,0.762,8.501
		c-1.228,0.825-0.198,3.255-2.128,4.175c-0.048,4.158-5.399,5.928-9.1,5.136c-1.349-0.289-1.225-0.999-1.985-1.72
		c-0.275-0.26-0.818-0.176-1.099-0.423c-1.348-1.192-0.873-3.333-2.24-4.555c-0.701-6.122,0.2-8.393-0.829-13.521
		c0.438-0.455,0.734-2.057,0.184-2.838c0.031-0.257,0.396-0.193,0.651-0.229c-0.423-6.423,1.646-13.729,1.702-20.318
		c0.504-0.091,0.284-0.877,0.646-1.1c-0.922-7.06,0.187-13.959-0.499-22.036c0.871-2.358,1.104-6.472,0.755-9.175
		c0.762-1.87,0.718-4.285,0.792-6.124c-1.069-0.817-3.509-0.229-5.24-0.37c-0.373-0.69-0.385-0.907-0.242-1.742
		c2.211,0.027,3.471-0.328,5.457-0.071c0.151-1.185,0.59-2.278,0.614-3.063c0.006-0.178-0.438-0.212-0.438-0.212
		c0.117-0.941,1.44-2.222,0.177-3.274c1.323-1.897,0.89-8.709,0.51-11.134c0.21-0.592,1.374-0.249,1.737-0.682
		c0.892,0.558-0.134,2.805,0.702,3.702c-0.21,0.227-0.424,0.447-0.643,0.662c0.86,4.535-0.495,8.701-0.916,13.763
		C279.844,35.371,284.121,31.521,284.989,34.78z M279.1,35.073c0-0.289,0.382-0.204,0.432-0.443c-0.3,0.016-0.482-0.097-0.662-0.21
		C278.913,34.675,278.842,35.041,279.1,35.073z M277.582,35.965c-0.168,0.052-0.429,0.011-0.433,0.224
		C277.318,36.137,277.58,36.177,277.582,35.965z M275.831,69.598c-0.169,0.05-0.429,0.01-0.434,0.224
		C275.57,69.767,275.828,69.81,275.831,69.598z"/>
	<path fill-rule="evenodd" clip-rule="evenodd" d="M155.305,14.175c-0.52,10.075,0.442,16.252-1.412,26.208
		c0.375,0.587-0.332,1.023,0.454,1.301c-0.844,8.205-1.039,16.509-1.858,25.342c-0.302,3.229-0.071,6.519-0.316,9.606
		c-0.116,1.448-0.808,2.603-0.823,3.937c-0.004,0.403,0.465,0.859,0.453,1.307c-0.119,4.515-0.792,9.333-0.914,13.761
		c0.56-0.534,0.695-1.477,0.622-2.626c1.255-1.431,1.387-4.12,3.203-5.499c0.737-3.685,5.312-4.768,8.43-6.437
		c8.576-0.561,9.703,3.671,8.851,9.49c-0.525,3.563-0.36,8.207-1.592,12.023c-0.71,2.193-1.453,5.513-1.203,8.528
		c0.101,1.207,0.486,2.78,2.005,3.03c1.906,0.31,2.528-1.01,3.907-1.578c0.64-0.066,0.677,0.483,1.313,0.42
		c-0.9,3.265-6.457,4.096-9.146,1.424c-1.72-9.103,3.489-14.051,2.331-22.509c1.142-3.346,1.377-8.134-2.515-8.917
		c-2.326-0.465-6.464,0.772-8.482,2.292c-1.262,0.951-2.464,2.812-3.44,4.192c-0.838,1.19-0.659,2.332-1.261,3.727
		c-0.398,0.921-1.084,1.233-1.283,1.978c-0.421,1.562,0.795,2.044-0.836,3.067c0.628,2.064-0.661,3.769-1.019,5.688
		c-0.318,1.731-0.034,3.751-0.365,5.461c-0.414,2.151-1.151,3.853-1.235,5.906c-0.033,0.857-0.085,1.695-0.619,2.627
		c-0.674,0.296-0.626-0.05-1.53,0.021c-0.39-0.523,0.253-1.434-0.891-1.516c1.693-2.374,1.787-6.017,1.827-10.5
		c1.012-3.25,0.533-6.762,1.182-10.273c1.015-5.523,0.469-11.63,0.863-17.91c0.464-7.481,1.494-14.971,1.255-21.186
		c0.966-2.795,0.558-9.045,0.514-11.137c0.115-0.316-0.125-2.055,0.189-2.183c0,0,1.04-5.364,0.531-9.827
		c0.725-4.05,0.788-6.558,0.843-10.707c-0.546-2.501,0.197-6.75,0.216-8.731c0.174-0.19,0.598-0.138,0.65-0.446
		C154.595,13.725,154.847,14.054,155.305,14.175z"/>
	<path fill-rule="evenodd" clip-rule="evenodd" d="M219.413,78.174c2.519,0.366,4.055,1.737,4.418,4.311
		c1.532,2.499,2.343,6.411,1.429,9.149c0.125,0.31,0.346,0.525,0.663,0.645c-1.111,2.164-1.297,4.28-2.086,7.665
		c-1.762,2.015-2.956,5.736-3.826,7.904c-3.63,2.708-5.912,7.441-12.145,6.049c-12.432-2.774-7.69-19.27-3.62-27.017
		c2.859-3.471,6.575-7.446,12.578-6.488c1.131,0.181,2.203,0.725,2.203,1.716c-2.774,0.582-7.361-0.728-9.8,1.872
		c-0.665,0.795-1.098,1.475-1.715,2.204c-0.458,0.544-1.335,1.026-1.724,1.767c-0.339,0.647-0.232,1.629-0.623,2.411
		c-0.049,0.093-0.592-0.083-0.656,0.006c-0.037,0.054,0.321,0.433,0.226,0.655c-0.074,0.175-0.591,0.105-0.651,0.226
		c-0.375,0.78-0.887,2.508-1.263,3.726c-1.28,4.142-2.451,11.712,1.069,15.045c1.135,1.081,2.773,1.314,4.394,2.344
		c1.954-0.513,2.979-0.193,4.794-0.497c0.724-1.379,2.655-1.581,2.793-3.527c2.073-0.783,3.226-2.458,3.647-4.849
		c3.747-5.407,7.258-17.972-0.307-24.221C219.134,78.765,219.233,78.432,219.413,78.174z"/>
	<path fill-rule="evenodd" clip-rule="evenodd" d="M309.323,77.465c0.217-0.005,0.435-0.008,0.655-0.01
		c0.537,0.407,0.635,1.263,1.112,1.732c-0.776,4.068-1.476,8.015-1.156,12.018c2.072-1.631,2.877-4.938,5.151-7.051
		c1.086-1.013,2.588-1.473,3.892-2.67c1.534,0.627,2.624-0.574,4.137-0.708c4.216-0.368,7.629,2.168,9.017,5.343
		c-0.467,2.662,1.968,5.224,2.291,8.481c0.188,1.87-0.135,3.305,0.926,4.354c-0.084,0.753,0.104,1.221,0.245,1.742
		c0.48,0.758,1.208,1.266,1.556,2.164c5.824,1.615,5.778-5.921,9.942-7.331c0.17-0.198,0.23-0.494,0.206-0.877
		c2.419,0.006,3.179-2.575,5.213-2.248c-0.328,1.474-2.104,2.829-3.883,3.544c-1.199,2.278-3.792,3.201-4.51,5.948
		c-1.1,1.155-2.519,1.994-3.669,3.104c-0.254-0.031-0.39,0.053-0.434,0.224c-3.492,0.634-4.451-1.333-5.927-2.762
		c-0.582-2.315-0.981-3.98-1.604-5.872c0.752-0.215-0.15-0.703,0.422-1.096c-2.358-4.789-1.269-12.534-8.459-12.769
		c-2.004-0.067-4.559,0.376-6.094,1.17c-1.504,0.776-5.192,4.764-6.027,6.623c-0.208,0.468-0.01,1.177-0.195,1.751
		c-0.645,1.994-2.116,4.261-2.538,6.14c-0.486,2.137-0.631,5.522-0.989,8.309c-1.327,0.63-0.629,3.611-1.458,5.254
		c-1.113,0.456-1.678-0.125-2.192-0.841c1.551-3.457,1.845-8.753,2.446-13.345c0.215-1.642,0.21-3.54,0.811-4.814
		c-0.804-3.502,1.762-10.279,0.682-15.068C309.266,77.979,309.301,77.729,309.323,77.465z"/>
	<path fill-rule="evenodd" clip-rule="evenodd" d="M188.009,80.105c0.297-0.434,1.419,0.15,1.753,0.412
		c0.229,1.679-0.892,2.788,0.047,3.928c-0.951,4.396-1.497,7.769-1.143,12.892c-0.848,0.537-0.946,1.533-1.05,3.068
		c-0.257,3.75-1.306,7.6-0.74,10.487c0.081,0.342,0.381-0.194,0.439,0.211c-0.406,0.866-1.647,0.932-2.61,0.689
		c0.365-0.374,0.365-0.374,0.198-1.534c0.031-0.253-0.257,0.04,0,0c-0.641-1.966,0.531-3.846,0.792-6.336
		c0.103-0.965-0.085-1.814,0.184-2.84c0.681-2.616,0.456-5.797,0.763-8.521c0.24-2.137,0.839-4.222,1.014-6.124
		C187.871,84.084,187.5,82.135,188.009,80.105z"/>
	<path fill-rule="evenodd" clip-rule="evenodd" d="M262.661,85.069c0.047-0.329,1.027-1.72,0.896-2.458
		c-0.614-1.267-0.491-1.626-0.693-3.047c-1.846-2.742-6.506-2.906-9.847-2.058c-2.125,0.543-3.207,2.469-4.982,3.12
		c-0.889,1.364-1.285,2.308-3.016,3.095c0.057,0.592-0.283,1.984-1.502,1.984c-0.474,2.39-1.244,4.239-1.959,6.131
		c-0.16,1.102-0.444,2.894-0.602,2.977c-0.003,0-0.003,0.001-0.006,0c-0.118,0.151-0.275,0.203-0.469,0.101
		c-0.104-0.031-0.206-0.12-0.292-0.241c-0.002,0-0.005-0.004-0.005-0.004c-0.076-0.113-0.062-0.246-0.049-0.41
		c0.015-0.004,0.008-0.419,0.019-0.422c0.009-0.601,0.097-1.28,0.181-2.073c0.087-1.101-0.067-2.225-0.277-3.612
		c0.253-1.611-0.625-4.759,0.131-6.99c-0.865-0.659-1.62-1.578-2.628-0.619c1.135,2.084,0.958,5.301,0.985,8.718
		c0.018,2.496,0.758,5.419-0.562,7.21c0.462,5.473-0.903,10.017-1.78,14.425c0.583,0.647,1.604,0.759,2.625,0.402
		c0.078-2.854,0.328-4.704,1.423-7.875c-0.79-2.342,1.589-4.354,1.017-5.905c0.346-0.023,0.164-0.56,0.652-0.445
		c-0.327-1.028,0.563-1.646,0.838-2.629c0.672-2.421,0.951-5.875,2.512-8.107c0.359-0.509,1.197-0.706,1.73-1.332
		c1.831-2.134,3.007-4.589,6.049-4.878c1.188-1.332,4.931-1.164,6.97-0.962c0.629,1.012,1.806,2.682,1.589,4.562
		c-0.255,0.037-0.622-0.027-0.652,0.227c0.961,0.686-0.118,2.627-0.837,3.064c-1.413,0.129-2.675,0.404-2.593,2
		c0.736,0.35,2.11,0.047,2.847,0.4c0.977-0.771,1.946-1.548,2.803-2.437C262.571,86.413,262.6,85.697,262.661,85.069z"/>
</g>
</svg>
